<svg width="402" height="874" viewBox="0 0 402 874" fill="none" xmlns="http://www.w3.org/2000/svg">
<g clip-path="url(#clip0_194_7042)">
<rect width="402" height="874" fill="white"/>
<path d="M-5 -23.9999C130.96 -23.9999 266.92 -23.9999 407 -23.9999C407 273.252 407 570.504 407 876.764C271.04 876.764 135.08 876.764 -5 876.764C-5 579.512 -5 282.26 -5 -23.9999Z" fill="#5CA547"/>
<path d="M295.408 635.579C297.506 637.296 299.33 639.222 299.9 641.946C299.627 643.07 299.627 643.07 298.686 643.89C297.441 644.423 296.483 644.694 295.175 644.943C292.871 645.441 290.845 646.244 288.726 647.26C288.368 647.431 288.01 647.601 287.642 647.776C284.663 649.243 282.142 651.007 279.707 653.273C279.397 653.55 279.087 653.828 278.768 654.113C277.858 654.94 277.858 654.94 276.792 656.188C276.792 656.669 276.792 657.15 276.792 657.645C279.008 657.403 280.088 656.583 281.742 655.125C288.63 649.351 297.924 645.595 307.049 645.839C312.265 646.415 315.794 649.645 319.116 653.489C321.833 656.899 321.833 656.899 322.462 658.617C322.28 659.953 322.28 659.953 321.976 661.046C321.424 661.088 320.871 661.13 320.302 661.173C311.465 661.938 304.034 664.622 297.319 670.611C297.064 670.837 296.808 671.062 296.545 671.294C295.745 672.018 295.745 672.018 294.769 673.193C294.769 673.834 294.769 674.475 294.769 675.136C296.678 674.867 297.547 673.975 298.898 672.646C305.087 666.905 311.545 664.659 319.803 664.8C323.213 664.944 325.995 665.824 328.414 668.304C331.543 672.465 333.194 677.279 333.636 682.424C333.682 682.882 333.728 683.339 333.775 683.811C334.22 692.271 329.707 700.463 324.405 706.716C321.786 709.436 319.172 711.611 315.66 713.032C315.239 713.223 314.818 713.413 314.385 713.609C307.885 715.833 300.425 714.581 294.351 711.689C278.246 703.555 262.651 688.662 255.901 671.735C255.745 671.371 255.59 671.006 255.43 670.63C253.014 664.076 254.105 656.063 256.837 649.812C260.437 642.084 265.631 634.607 273.877 631.41C281.559 628.849 288.932 631.156 295.408 635.579Z" fill="#9CCD48"/>
<path d="M263.327 403.504C265.496 404.765 266.96 406.107 268.047 408.406C269.243 413.029 269.168 417.761 269.145 422.499C269.14 423.759 269.145 425.018 269.152 426.278C269.162 438.736 268.019 452.907 258.816 462.335C252.597 468.023 246.753 469.497 238.484 469.317C233.145 469.046 229.083 466.468 225.292 462.821C222.581 459.667 222.104 456.407 222.159 452.354C222.57 449.194 224.337 447.635 226.628 445.604C229.095 443.891 231.592 444.026 234.523 444.359C235.827 444.898 236.999 445.548 238.224 446.243C240.543 447.334 242.773 447.06 245.182 446.393C246.33 445.831 246.33 445.831 247.155 444.359C247.155 443.878 247.155 443.397 247.155 442.901C246.669 442.918 246.182 442.935 245.681 442.952C239.195 443.114 239.195 443.114 236.467 441.444C236.144 441.248 235.822 441.053 235.489 440.852C231.568 438.242 229.812 434.25 228.693 429.783C228.49 428.107 228.461 426.46 228.481 424.773C228.484 424.325 228.488 423.878 228.492 423.417C228.649 416.906 230.91 411.789 235.617 407.282C239.631 403.942 243.305 403.331 248.41 403.384C249.982 403.539 251.067 403.895 252.5 404.519C253.825 404.387 254.795 404.099 255.992 403.517C258.419 402.708 260.919 402.545 263.327 403.504Z" fill="#FCFCFC"/>
<path d="M117.506 381.062C122.224 380.838 126.251 382.065 130.035 384.934C132.359 387.144 133.73 389.989 134.226 393.133C133.654 396.625 132.381 399.336 129.527 401.5C125.784 403.905 121.739 403.871 117.434 404.034C117.434 405.156 117.434 406.278 117.434 407.435C117.845 407.358 118.255 407.282 118.679 407.203C125.43 406.175 125.43 406.175 128.206 407.423C130.026 408.892 130.94 410.466 131.201 412.756C131.24 416.104 131.125 418.767 129.094 421.524C128.822 421.739 128.549 421.953 128.269 422.173C127.501 422.976 127.501 422.976 127.684 424.238C128.256 426.404 129.015 428.475 129.793 430.573C131.085 434.169 132.17 437.615 132.495 441.444C132.554 442.014 132.554 442.014 132.615 442.596C132.827 446.313 131.493 449.646 129.216 452.558C126.776 455.125 124.369 456.124 120.835 456.293C117.952 456.173 116.13 455.57 114.033 453.59C111.211 449.777 109.557 445.256 107.778 440.898C107.487 440.194 107.196 439.491 106.905 438.787C106.2 437.083 105.499 435.378 104.802 433.671C104.309 433.693 103.817 433.716 103.31 433.739C102.653 433.757 101.997 433.775 101.34 433.792C101.017 433.808 100.694 433.825 100.361 433.841C97.8615 433.89 96.525 433.28 94.5989 431.727C93.1917 430.126 92.7057 428.859 92.5036 426.717C92.6873 424.55 93.2221 423.677 94.5989 422.01C95.1293 421.598 95.6659 421.193 96.2082 420.796C96.6391 420.395 97.07 419.994 97.514 419.581C97.3539 417.457 96.7052 415.498 96.0564 413.478C94.1922 407.659 93.3818 400.781 95.8989 395.023C99.513 388.328 104.74 383.97 112.036 381.742C113.854 381.364 115.659 381.227 117.506 381.062Z" fill="#FBFCFB"/>
<path d="M303.514 405.977C305.588 406.998 306.996 408.312 308.312 410.198C309.86 414.756 310.019 419.389 310.012 424.166C310.012 424.49 310.012 424.815 310.012 425.149C309.96 439.016 308.205 453.769 298.255 464.22C294.639 467.746 290.331 469.698 285.204 469.806C279.925 469.563 276.367 468.115 272.511 464.431C270.328 461.125 269.001 457.557 269.505 453.59C270.427 450.269 271.71 448.019 274.363 445.817C276.536 445.093 278.506 445.093 280.679 445.817C281.629 445.887 282.581 445.924 283.534 445.938C284.033 445.951 284.533 445.963 285.048 445.976C286.723 445.794 287.607 445.379 288.939 444.359C289.599 442.865 289.599 442.865 289.91 441.444C289.642 441.522 289.374 441.6 289.098 441.68C285.094 442.566 281.281 442.082 277.827 439.898C274.101 437.069 272.654 432.8 271.934 428.326C271.798 426.754 271.772 425.197 271.782 423.62C271.784 423.198 271.786 422.776 271.788 422.342C271.886 416.745 272.677 411.646 276.307 407.222C278.658 405.998 281 406.174 283.594 406.463C285.931 407.256 287.092 408.31 288.453 410.35C288.658 411.851 288.658 411.851 288.609 413.512C288.598 414.111 288.587 414.71 288.576 415.328C288.556 415.95 288.535 416.572 288.514 417.213C288.48 418.449 288.451 419.685 288.426 420.921C288.409 421.468 288.391 422.015 288.373 422.578C288.342 424.054 288.342 424.054 289.425 425.411C290.68 425.533 290.68 425.533 291.854 425.411C292.871 421.854 293.126 418.386 293.328 414.702C293.592 411.081 294.276 409.246 297.016 406.767C299.255 405.689 301.075 405.481 303.514 405.977Z" fill="#FBFCFB"/>
<path d="M221.06 385.968C223.425 387.463 224.801 389.807 225.778 392.373C226.529 396.911 226.359 401.629 226.38 406.22C226.382 406.593 226.384 406.967 226.386 407.351C226.396 409.324 226.403 411.296 226.407 413.269C226.413 415.288 226.43 417.306 226.449 419.325C226.462 420.896 226.466 422.466 226.467 424.037C226.47 424.781 226.475 425.524 226.484 426.268C226.556 432.504 225.836 438.163 221.406 442.902C219.243 445.089 216.934 446.545 214.118 447.76C213.776 447.934 213.434 448.108 213.082 448.288C211.04 448.939 209.082 448.911 206.952 448.914C206.536 448.926 206.12 448.938 205.691 448.95C200.534 448.974 196.561 446.608 192.908 443.101C188.201 437.998 187.157 432.017 187.279 425.284C187.671 419.221 189.92 413.809 194.411 409.621C195.137 409.038 195.875 408.47 196.627 407.921C196.914 407.7 197.201 407.48 197.497 407.253C200.675 405.236 204.678 405.82 208.288 405.977C208.278 405.571 208.267 405.164 208.257 404.746C208.223 403.221 208.199 401.696 208.181 400.171C208.166 399.193 208.142 398.215 208.117 397.238C208.071 392.697 208.537 390.141 211.385 386.543C213.944 384.619 218.185 384.943 221.06 385.968Z" fill="#FCFCFC"/>
<path d="M161.766 404.86C164.287 406.14 165.633 408.219 166.505 410.835C166.806 413.844 166.091 416.058 164.561 418.608C162.447 420.934 159.94 421.845 157.036 422.973C155.865 423.355 155.865 423.355 155.33 423.953C155.305 425.203 155.31 426.44 155.334 427.69C155.343 428.467 155.351 429.245 155.359 430.023C155.374 431.25 155.391 432.477 155.414 433.704C155.434 434.888 155.446 436.071 155.456 437.255C155.465 437.616 155.474 437.977 155.483 438.349C155.497 441.284 154.975 444.01 153.038 446.33C152.752 446.551 152.466 446.772 152.172 447C151.887 447.23 151.601 447.46 151.307 447.697C149.035 449.189 146.273 449.099 143.67 448.731C140.943 447.47 139.846 445.211 138.816 442.524C137.762 439.16 137.199 435.675 136.564 432.212C136.418 431.433 136.271 430.653 136.124 429.874C135.844 428.389 135.567 426.903 135.292 425.417C134.997 423.834 134.678 422.257 134.348 420.681C133.691 417.425 133.294 414.172 134.742 411.108C138.537 407.014 138.537 407.014 141.315 406.866C141.922 406.863 142.528 406.86 143.154 406.857C143.759 406.85 144.365 406.843 144.989 406.836C146.585 406.948 146.585 406.948 148.043 407.92C149.715 407.762 150.624 406.981 151.899 405.946C154.892 403.893 158.33 403.785 161.766 404.86Z" fill="#FCFCFB"/>
<path d="M179.137 408.891C181.569 410.107 182.965 411.499 184.023 413.984C184.633 416.261 184.639 418.403 184.644 420.751C184.647 421.238 184.651 421.726 184.654 422.229C184.659 423.26 184.661 424.291 184.661 425.322C184.663 426.881 184.681 428.439 184.699 429.998C184.768 442.272 184.768 442.272 181.545 445.988C179.163 448.223 177.167 448.916 173.929 448.863C172.155 448.651 171.215 447.975 169.906 446.787C166.613 442.214 166.845 436.782 166.89 431.365C166.899 430.257 166.9 429.15 166.9 428.042C166.919 422.639 166.919 422.639 167.476 421.523C167.618 420.614 167.748 419.702 167.871 418.79C168.504 414.959 169.631 411.879 172.76 409.411C174.816 408.375 176.914 408.495 179.137 408.891Z" fill="#FAFCFA"/>
<path d="M180.139 388.759C182.633 390.117 184.551 392.095 185.453 394.802C185.752 397.795 185.031 400.034 183.509 402.575C181.293 404.736 179.37 405.633 176.282 405.672C173.741 405.623 172.309 405.324 170.391 403.547C168.002 401.046 167.242 399.025 167.277 395.597C167.669 393.074 169.263 391.363 171.183 389.774C174.035 387.78 176.928 387.32 180.139 388.759Z" fill="#F9FBF9"/>
<path d="M250.557 419.094C251.962 420.355 252.432 421.118 252.743 422.981C252.429 424.861 252.014 425.629 250.557 426.867C248.115 427.255 247.235 427.268 245.212 425.835C244.241 424.438 244.241 424.438 243.967 422.981C244.301 421.203 244.934 420.381 246.184 419.094C247.749 418.311 248.893 418.692 250.557 419.094Z" fill="#64AB56"/>
<path d="M205.373 420.552C207.188 420.655 208.432 420.81 209.958 421.827C211.038 423.468 211.021 424.456 210.717 426.382C209.461 428.172 208.74 428.723 206.587 429.145C204.887 428.811 204.887 428.811 203.46 427.506C202.458 425.896 202.458 425.896 202.154 424.651C202.59 422.949 203.59 422.177 204.887 421.038C205.047 420.878 205.208 420.717 205.373 420.552Z" fill="#5CA44E"/>
<path d="M321.257 778.613C324.535 778.819 327.319 779.327 330.395 780.454C332.761 781.247 335.165 781.839 337.584 782.449C342.511 783.706 347.306 785.192 352.099 786.882C353.208 787.272 354.317 787.661 355.426 788.051C356.206 788.325 356.985 788.601 357.764 788.877C360.365 789.795 362.979 790.665 365.604 791.511C366.269 791.727 366.933 791.943 367.598 792.159C368.588 792.48 369.578 792.8 370.571 793.113C371.501 793.406 372.428 793.707 373.355 794.009C373.893 794.18 374.432 794.352 374.987 794.529C376.495 795.187 377.315 795.801 378.335 797.085C378.65 799.214 378.489 800.213 377.424 802.095C376.137 803.723 375.497 804.455 373.476 804.859C373.637 805.019 373.797 805.179 373.962 805.344C373.705 808.587 372.942 811.673 372.14 814.819C372.009 815.336 371.877 815.854 371.741 816.387C368.997 827.046 364.963 836.892 359.873 846.642C359.7 846.975 359.527 847.307 359.349 847.65C357.576 851.059 355.772 854.445 353.858 857.777C352.02 860.982 350.32 864.229 348.728 867.564C348.545 867.945 348.361 868.327 348.172 868.72C347.387 870.392 346.694 871.994 346.236 873.787C345.777 875.327 345.557 875.808 344.325 876.764C341.585 877.272 339.002 876.623 336.43 875.671C336.087 875.544 335.743 875.417 335.389 875.287C329.728 873.157 324.16 870.778 318.586 868.432C317.592 868.014 316.597 867.598 315.603 867.182C307.025 863.596 298.502 859.924 290.101 855.938C289.137 855.481 288.168 855.033 287.198 854.588C286.023 853.929 286.023 853.929 285.052 852.472C285.191 850.12 286.079 848.312 287.177 846.277C288.942 842.872 290.489 839.397 291.975 835.862C292.2 835.327 292.425 834.791 292.657 834.24C293.852 831.384 295.026 828.52 296.185 825.65C300.641 814.641 305.539 804.065 312.116 794.152C313.025 792.774 313.901 791.377 314.78 789.979C316.085 787.915 316.085 787.915 316.632 787.368C316.777 786.713 316.906 786.054 317.027 785.394C318.454 778.635 318.454 778.635 321.257 778.613Z" fill="#9BCC47"/>
<path d="M328.752 815.487C336.016 815.093 343.505 815.845 350.156 818.948C349.916 821.613 348.949 823.391 347.544 825.598C347.329 825.938 347.113 826.279 346.891 826.63C342.116 833.923 335.312 839.147 326.835 841.297C322.303 841.95 317.412 841.21 313.626 838.533C313.175 838.163 312.724 837.792 312.26 837.41C312.435 836.132 312.636 835.571 313.582 834.669C319.929 830.304 327.087 827.354 334.123 824.292C325.188 825.475 317.313 828.766 310.223 834.364C309.345 834.981 309.345 834.981 308.373 834.981C307.962 830.554 308.538 827.804 311.288 824.292C311.677 823.783 311.677 823.783 312.074 823.263C315.431 819.429 321.353 816.328 326.423 815.634C327.2 815.585 327.976 815.536 328.752 815.487Z" fill="#5CA648"/>
<path d="M165.463 572.849C167.124 572.352 167.124 572.352 168.274 572.786C170.663 574.095 172.522 575.201 174.096 577.501C174.028 576.775 173.96 576.049 173.889 575.301C174.756 573.288 174.756 573.288 175.924 571.524C178.4 571.291 179.345 571.779 181.302 573.258C183.132 575.254 182.595 577.809 182.494 580.329C182.168 581.969 181.608 583.142 180.736 584.56C181.092 584.752 181.448 584.944 181.815 585.142C182.487 583.896 183.158 582.649 183.85 581.365C185.33 581.818 185.33 581.818 186.839 582.279C187.736 585.543 187.237 587.689 185.946 590.719C185.786 591.115 185.627 591.512 185.462 591.92C185.07 592.888 184.667 593.852 184.261 594.815C184.719 594.521 185.178 594.227 185.65 593.923C188.284 592.462 190.636 592.479 193.487 593.153C198.005 595.003 200.365 599.652 202.357 603.87C203.841 607.49 205.011 611.211 206.132 614.955C206.468 616.048 206.468 616.048 206.811 617.162C207.305 618.864 207.727 620.552 208.101 622.283C208.492 624.042 208.911 625.727 209.451 627.449C210.584 631.401 211.882 635.934 211.396 640.072C210.394 641.446 210.394 641.446 209.402 642.479C204.338 640.207 200.548 636.501 196.537 632.761C195.988 632.253 195.988 632.253 195.428 631.735C188.126 624.956 188.126 624.956 185.475 621.249C184.319 619.698 183.036 618.279 181.753 616.831C179.477 614.2 177.673 611.689 176.162 608.553C176.354 608.197 176.546 607.841 176.743 607.474C176.387 607.282 176.031 607.09 175.664 606.892C175.13 604.086 175.74 602.358 177.133 599.982C178.04 598.704 179.081 597.788 180.358 596.889C179.176 596.726 179.176 596.726 177.969 596.559C177.492 596.492 177.015 596.424 176.524 596.354C175.122 596.156 175.122 596.156 173.509 596.114C169.411 595.338 166.717 593.208 164.31 589.887C163.881 588.706 163.881 588.706 164.795 585.718C168.192 587.089 171.589 588.46 175.088 589.872C173.861 589.139 172.633 588.406 171.369 587.65C165.143 583.789 165.143 583.789 164.005 580.098C163.261 576.783 163.107 575.315 165.463 572.849Z" fill="#9DCD47"/>
<path d="M124.33 606.366C125.758 607.078 126.886 607.859 127.41 609.409C127.531 609.667 127.651 609.926 127.776 610.192C128.544 610.438 129.304 610.568 130.098 610.704C131.183 610.959 131.823 611.493 132.601 612.279C133.053 613.192 133.022 613.955 133.075 614.974C133.197 616.67 133.558 617.722 134.324 619.235C134.526 620.905 134.552 622.65 133.635 624.104C133.358 624.205 133.08 624.305 132.795 624.409C131.768 624.863 131.704 625.059 131.287 626.061C131.152 626.448 131.017 626.835 130.878 627.235C130.65 627.235 130.423 627.235 130.188 627.235C130.188 627.464 130.188 627.694 130.188 627.93C128.184 628.035 127.16 627.854 125.363 626.887C124.517 626.626 124.517 626.626 123.64 626.887C121.828 628.053 120.798 629.493 119.849 631.408C119.31 631.309 118.772 631.207 118.234 631.104C117.934 631.047 117.634 630.991 117.325 630.933C116.403 630.713 116.403 630.713 114.679 630.017C114.679 627.262 114.679 624.508 114.679 621.67C113.883 621.555 113.087 621.44 112.267 621.322C111.238 620.809 110.516 620.184 109.854 619.235C109.501 617.752 109.615 616.555 110.328 615.213C110.888 614.713 110.888 614.713 111.578 614.713C111.558 614.515 111.538 614.318 111.517 614.114C111.416 612.363 111.518 611.011 112.62 609.603C114.111 608.607 116.049 608.782 117.781 608.8C117.781 608.571 117.781 608.341 117.781 608.105C118.101 607.947 118.421 607.789 118.751 607.626C121.983 605.963 121.983 605.963 124.33 606.366Z" fill="#9DCD49"/>
</g>
<defs>
<clipPath id="clip0_194_7042">
<rect width="402" height="874" fill="white"/>
</clipPath>
</defs>
</svg>
